<?xml version="1.0" encoding="UTF-8" standalone="no"?>
<svg
   xmlns:dc="http://purl.org/dc/elements/1.1/"
   xmlns:cc="http://creativecommons.org/ns#"
   xmlns:rdf="http://www.w3.org/1999/02/22-rdf-syntax-ns#"
   xmlns:svg="http://www.w3.org/2000/svg"
   xmlns="http://www.w3.org/2000/svg"
   viewBox="0 0 504 312"
   height="312"
   width="504"
   xml:space="preserve"
   id="svg2"
   version="1.1"><metadata
     id="metadata8"><rdf:RDF><cc:Work
         rdf:about=""><dc:format>image/svg+xml</dc:format><dc:type
           rdf:resource="http://purl.org/dc/dcmitype/StillImage" /></cc:Work></rdf:RDF></metadata><defs
     id="defs6"><clipPath
       id="clipPath22"
       clipPathUnits="userSpaceOnUse"><path
         id="path20"
         d="M 0,234 H 378 V 0 H 0 Z" /></clipPath></defs><g
     transform="matrix(1.3333333,0,0,-1.3333333,0,312)"
     id="g10"><text
       id="text14"
       style="font-variant:normal;font-weight:300;font-stretch:normal;font-size:57.54069901px;font-family:'Geometria Light';-inkscape-font-specification:Geometria-Light;writing-mode:lr-tb;fill:#e64c3c;fill-opacity:1;fill-rule:nonzero;stroke:none"
       transform="matrix(1,0,0,-1,39.4502,103.8027)"><tspan
         id="tspan12"
         y="0"
         x="0 283.50302">{}</tspan></text>
<g
       id="g16"><g
         clip-path="url(#clipPath22)"
         id="g18"><g
           transform="translate(73.1828,115.6904)"
           id="g24"><path
             id="path26"
             style="fill:#2e4d66;fill-opacity:1;fill-rule:nonzero;stroke:none"
             d="m 0,0 c 0,3.827 -2.846,6.772 -6.64,6.772 -2.683,0 -5.038,-1.701 -6.085,-3.861 V -2.878 C -11.711,-5.103 -9.29,-6.706 -6.64,-6.706 -2.846,-6.706 0,-3.762 0,0 m -12.725,-5.07 v -2.715 h -1.603 v 22.898 h 1.603 V 5.103 c 1.308,1.8 3.5,3.14 6.411,3.14 4.809,0 7.95,-3.892 7.95,-8.243 0,-4.318 -3.141,-8.178 -7.95,-8.178 -2.911,0 -5.103,1.308 -6.411,3.108" /></g><g
           transform="translate(92.9527,123.5414)"
           id="g28"><path
             id="path30"
             style="fill:#2e4d66;fill-opacity:1;fill-rule:nonzero;stroke:none"
             d="m 0,0 v -15.636 h -1.603 v 2.682 c -1.21,-1.505 -3.533,-3.075 -6.608,-3.075 -4.056,0 -6.051,2.421 -6.051,6.51 V 0 h 1.602 v -9.192 c 0,-4.613 2.879,-5.332 4.94,-5.332 2.486,0 5.038,1.832 6.117,3.566 l 0,10.958 z" /></g><g
           transform="translate(98.2636,123.5414)"
           id="g32"><path
             id="path34"
             style="fill:#2e4d66;fill-opacity:1;fill-rule:nonzero;stroke:none"
             d="m 0,0 h 1.603 v -3.238 c 1.047,1.832 3.468,3.63 6.313,3.63 v -1.635 c -3.238,0 -5.462,-2.224 -6.313,-4.121 V -15.636 H 0 Z" /></g><g
           transform="translate(109.6479,111.1762)"
           id="g36"><path
             id="path38"
             style="fill:#2e4d66;fill-opacity:1;fill-rule:nonzero;stroke:none"
             d="M 0,0 V 19.627 H 1.603 V 0.36 c 0,-1.669 0.785,-2.487 2.29,-2.487 0.621,0 1.145,0.164 1.635,0.458 V -3.206 C 4.874,-3.566 4.122,-3.664 3.402,-3.664 1.832,-3.664 0,-2.911 0,0" /></g><path
           id="path40"
           style="fill:#2e4d66;fill-opacity:1;fill-rule:nonzero;stroke:none"
           d="m 119.298,123.541 h 1.603 v -15.636 h -1.603 z m 0.785,6.805 c 0.72,0 1.309,-0.589 1.309,-1.309 0,-0.72 -0.589,-1.308 -1.309,-1.308 -0.719,0 -1.308,0.588 -1.308,1.308 0,0.72 0.589,1.309 1.308,1.309" /><g
           transform="translate(127.1818,107.9049)"
           id="g42"><path
             id="path44"
             style="fill:#2e4d66;fill-opacity:1;fill-rule:nonzero;stroke:none"
             d="m 0,0 v 15.636 h 1.603 v -2.682 c 1.21,1.505 3.533,3.075 6.608,3.075 4.056,0 6.051,-2.421 6.051,-6.51 V 0 H 12.66 v 9.192 c 0,4.58 -2.912,5.332 -4.94,5.332 -2.519,0 -5.07,-1.831 -6.117,-3.565 L 1.603,0 Z" /></g><g
           transform="translate(160.1892,118.6673)"
           id="g46"><path
             id="path48"
             style="fill:#2e4d66;fill-opacity:1;fill-rule:nonzero;stroke:none"
             d="m 0,0 c -1.014,2.224 -3.369,3.795 -6.052,3.795 -3.827,0 -6.673,-2.879 -6.673,-6.641 0,-3.827 2.846,-6.674 6.673,-6.674 2.683,0 5.038,1.538 6.052,3.763 z m 1.603,4.874 v -14.917 c 0,-4.972 -3.697,-7.393 -8.309,-7.393 -2.224,0 -4.58,0.687 -6.019,1.473 v 1.602 c 1.668,-1.014 3.86,-1.602 5.921,-1.602 3.86,0 6.804,1.766 6.804,5.92 v 2.094 c -1.308,-1.8 -3.5,-3.042 -6.379,-3.042 -4.809,0 -7.982,3.794 -7.982,8.145 0,4.285 3.173,8.112 7.982,8.112 2.879,0 5.071,-1.275 6.379,-3.074 v 2.682 z" /></g><g
           transform="translate(169.5784,112.0591)"
           id="g50"><path
             id="path52"
             style="fill:#2e4d66;fill-opacity:1;fill-rule:nonzero;stroke:none"
             d="m 0,0 v 10.043 h -3.958 v 1.439 H 0 v 5.005 H 1.603 V 11.482 H 7.36 V 10.043 H 1.603 V 0.425 c 0,-2.584 0.851,-3.434 2.911,-3.434 1.178,0 2.094,0.425 2.617,0.719 V -3.827 C 6.575,-4.22 5.299,-4.547 4.089,-4.547 1.211,-4.547 0,-2.715 0,0" /></g><g
           transform="translate(194.996,115.6904)"
           id="g54"><path
             id="path56"
             style="fill:#2e4d66;fill-opacity:1;fill-rule:nonzero;stroke:none"
             d="m 0,0 c 0,3.827 -2.911,6.772 -6.706,6.772 -3.794,0 -6.673,-2.945 -6.673,-6.772 0,-3.762 2.879,-6.706 6.673,-6.706 C -2.911,-6.706 0,-3.762 0,0 m -15.015,0 c 0,4.351 3.271,8.243 8.309,8.243 5.071,0 8.342,-3.892 8.342,-8.243 0,-4.318 -3.271,-8.178 -8.342,-8.178 -5.038,0 -8.309,3.86 -8.309,8.178" /></g><g
           transform="translate(201.3104,107.9049)"
           id="g58"><path
             id="path60"
             style="fill:#2e4d66;fill-opacity:1;fill-rule:nonzero;stroke:none"
             d="m 0,0 v 15.636 h 1.603 v -2.682 c 1.21,1.505 3.533,3.075 6.608,3.075 4.056,0 6.052,-2.421 6.052,-6.51 V 0 H 12.66 v 9.192 c 0,4.58 -2.912,5.332 -4.94,5.332 -2.518,0 -5.071,-1.831 -6.117,-3.565 L 1.603,0 Z" /></g><g
           transform="translate(230.436,119.3542)"
           id="g62"><path
             id="path64"
             style="fill:#3b97d3;fill-opacity:1;fill-rule:nonzero;stroke:none"
             d="m 0,0 c 0,6.902 5.038,11.842 11.548,11.842 2.486,0 4.677,-0.589 6.542,-1.799 V 8.309 C 16.16,9.552 14.099,10.271 11.58,10.271 6.052,10.271 1.669,5.954 1.669,0 c 0,-5.953 4.383,-10.305 9.944,-10.305 2.748,0 5.071,0.851 7,2.389 v -1.8 c -1.897,-1.406 -4.252,-2.126 -7.065,-2.126 C 5.071,-11.842 0,-6.902 0,0" /></g><g
           transform="translate(230.436,119.3542)"
           id="g66"><path
             id="path68"
             style="fill:none;stroke:#3b97d3;stroke-width:3;stroke-linecap:butt;stroke-linejoin:miter;stroke-miterlimit:10;stroke-dasharray:none;stroke-opacity:1"
             d="m 0,0 c 0,6.902 5.038,11.842 11.548,11.842 2.486,0 4.677,-0.589 6.542,-1.799 V 8.309 C 16.16,9.552 14.099,10.271 11.58,10.271 6.052,10.271 1.669,5.954 1.669,0 c 0,-5.953 4.383,-10.305 9.944,-10.305 2.748,0 5.071,0.851 7,2.389 v -1.8 c -1.897,-1.406 -4.252,-2.126 -7.065,-2.126 C 5.071,-11.842 0,-6.902 0,0 Z" /></g><g
           transform="translate(273.9122,119.3542)"
           id="g70"><path
             id="path72"
             style="fill:#3b97d3;fill-opacity:1;fill-rule:nonzero;stroke:none"
             d="m 0,0 c 0,5.921 -4.285,10.271 -9.716,10.271 -5.43,0 -9.748,-4.35 -9.748,-10.271 0,-5.921 4.318,-10.305 9.748,-10.305 C -4.285,-10.305 0,-5.921 0,0 m -21.132,0 c 0,6.771 4.907,11.842 11.416,11.842 6.445,0 11.384,-5.071 11.384,-11.842 0,-6.804 -4.939,-11.842 -11.384,-11.842 -6.509,0 -11.416,5.038 -11.416,11.842" /></g><g
           transform="translate(273.9122,119.3542)"
           id="g74"><path
             id="path76"
             style="fill:none;stroke:#3b97d3;stroke-width:3;stroke-linecap:butt;stroke-linejoin:miter;stroke-miterlimit:10;stroke-dasharray:none;stroke-opacity:1"
             d="m 0,0 c 0,5.921 -4.285,10.271 -9.716,10.271 -5.43,0 -9.748,-4.35 -9.748,-10.271 0,-5.921 4.318,-10.305 9.748,-10.305 C -4.285,-10.305 0,-5.921 0,0 Z m -21.132,0 c 0,6.771 4.907,11.842 11.416,11.842 6.445,0 11.384,-5.071 11.384,-11.842 0,-6.804 -4.939,-11.842 -11.384,-11.842 -6.509,0 -11.416,5.038 -11.416,11.842 z" /></g><g
           transform="translate(288.3395,109.4096)"
           id="g78"><path
             id="path80"
             style="fill:#3b97d3;fill-opacity:1;fill-rule:nonzero;stroke:none"
             d="m 0,0 c 6.804,0 10.926,3.991 10.926,9.945 0,5.953 -4.122,9.944 -10.926,9.944 H -5.267 V 0 Z m -6.902,21.394 h 7.163 c 7.328,0 12.333,-4.645 12.333,-11.449 0,-6.805 -5.005,-11.45 -12.333,-11.45 h -7.163 z" /></g><g
           transform="translate(288.3395,109.4096)"
           id="g82"><path
             id="path84"
             style="fill:none;stroke:#3b97d3;stroke-width:3;stroke-linecap:butt;stroke-linejoin:miter;stroke-miterlimit:10;stroke-dasharray:none;stroke-opacity:1"
             d="m 0,0 c 6.804,0 10.926,3.991 10.926,9.945 0,5.953 -4.122,9.944 -10.926,9.944 H -5.267 V 0 Z m -6.902,21.394 h 7.163 c 7.328,0 12.333,-4.645 12.333,-11.449 0,-6.805 -5.005,-11.45 -12.333,-11.45 h -7.163 z" /></g><g
           transform="translate(306.7894,130.8034)"
           id="g86"><path
             id="path88"
             style="fill:#3b97d3;fill-opacity:1;fill-rule:nonzero;stroke:none"
             d="M 0,0 H 15.375 V -1.505 H 1.636 v -8.309 h 11.351 v -1.537 H 1.636 v -10.043 h 14.262 v -1.505 l -15.898,0 z" /></g><g
           transform="translate(306.7894,130.8034)"
           id="g90"><path
             id="path92"
             style="fill:none;stroke:#3b97d3;stroke-width:3;stroke-linecap:butt;stroke-linejoin:miter;stroke-miterlimit:10;stroke-dasharray:none;stroke-opacity:1"
             d="M 0,0 H 15.375 V -1.505 H 1.636 v -8.309 h 11.351 v -1.537 H 1.636 v -10.043 h 14.262 v -1.505 l -15.898,0 z" /></g></g></g><text
       id="text96"
       style="font-variant:normal;font-weight:300;font-stretch:normal;font-size:12px;font-family:'Geometria Light';-inkscape-font-specification:Geometria-Light;writing-mode:lr-tb;fill:#231f20;fill-opacity:1;fill-rule:nonzero;stroke:none"
       transform="matrix(1,0,0,-1,165.6201,43)"><tspan
         id="tspan94"
         y="0"
         x="0 6.816 14.22 21.48 26.556 29.76 37.043999 43.056 49.872002 57.456001 60.66 63.720001 69.732002 72.935997 82.32 89.136002 96.540001 107.508 114.264 119.34 123.516 126.576 133.65601 136.86 143.976 147.036 154.608 161.868">Font used is Geometria Light</tspan></text>
</g></svg>